PathFileType	4	(X/Y/Z)	C:/Users/opensim2020/Desktop/walking_exp_matlab/subject06_walking13_straight_03_cyclic.trc	
DataRate	CameraRate	NumFrames	NumMarkers	Units	OrigDataRate	OrigDataStartFrame	OrigNumFrames	
100.00	100.00	4	50	mm	100.00	2263	111	
Frame#	Time	LFHD			RFHD			LBHD			RBHD			C7			T10			CLAV			STRN			RBAK			LSHO			LUPA			LELB			LFRM			LWRA			LWRB			LFIN			RSHO			RUPA			RELB			RFRM			RWRA			RWRB			RFIN			LASI			RASI			LPSI			RPSI			LTHI			LKNE			LTIB			LANK			LHEE			LTOE			RTHI			RKNE			RTIB			RANK			RHEE			RTOE			*39			*40			*41			*42			*43			*44			*45			*46			*47			*48			*49			
		X1	Y1	Z1	X2	Y2	Z2	X3	Y3	Z3	X4	Y4	Z4	X5	Y5	Z5	X6	Y6	Z6	X7	Y7	Z7	X8	Y8	Z8	X9	Y9	Z9	X10	Y10	Z10	X11	Y11	Z11	X12	Y12	Z12	X13	Y13	Z13	X14	Y14	Z14	X15	Y15	Z15	X16	Y16	Z16	X17	Y17	Z17	X18	Y18	Z18	X19	Y19	Z19	X20	Y20	Z20	X21	Y21	Z21	X22	Y22	Z22	X23	Y23	Z23	X24	Y24	Z24	X25	Y25	Z25	X26	Y26	Z26	X27	Y27	Z27	X28	Y28	Z28	X29	Y29	Z29	X30	Y30	Z30	X31	Y31	Z31	X32	Y32	Z32	X33	Y33	Z33	X34	Y34	Z34	X35	Y35	Z35	X36	Y36	Z36	X37	Y37	Z37	X38	Y38	Z38	X39	Y39	Z39	X40	Y40	Z40	X41	Y41	Z41	X42	Y42	Z42	X43	Y43	Z43	X44	Y44	Z44	X45	Y45	Z45	X46	Y46	Z46	X47	Y47	Z47	X48	Y48	Z48	X49	Y49	Z49	X50	Y50	Z50	

56	0.550	-1064.76575	79.53064	1644.54565	-933.74841	64.54319	1632.31982	-1080.74353	-54.49464	1596.01807	-952.24762	-67.49961	1588.81433	-1022.67572	-66.94717	1435.79858	-1009.41028	-106.55818	1105.85535	-1013.39270	42.25954	1357.24585	-1015.06146	83.22584	1184.06165	-942.22717	-148.63834	1265.42883	-1180.06165	-3.63124	1386.19788	-1243.20825	-54.07932	1190.45630	-1248.89294	-96.02299	1085.13428	-1272.34033	-123.16840	937.59283	-1236.49060	-97.16586	807.83209	-1268.06213	-160.13849	824.63782	-1269.56384	-151.56651	733.49603	-856.53021	-15.90285	1390.39746	-763.06171	-17.62333	1193.76379	-739.01062	33.69814	1084.19470	-718.40442	108.32526	992.19971	-748.10449	235.80777	913.90228	-708.80719	191.19608	883.68164	-701.65173	265.02414	848.01862	-1114.49268	80.20161	956.06567	-896.41589	68.12028	949.13751	-1099.35571	-80.07183	973.90576	-931.06708	-82.03085	972.28845	-1189.18225	74.41192	643.27307	-1162.01208	119.53239	488.38477	-1153.75488	133.54836	231.08202	-1110.31323	165.37988	62.18198	-1061.69177	129.12108	47.20454	-1105.95093	312.63162	40.80244	-851.55225	-17.55691	612.96729	-867.04834	-31.95704	485.94577	-875.16864	-216.63745	285.54510	-921.50378	-336.45471	143.69188	-967.14490	-379.71307	148.70338	-930.56976	-236.04520	30.22734	-1016.42560	-24.83393	1686.67810																														 
57	0.560	-1066.03711	90.38084	1645.71570	-935.15210	75.56635	1634.35925	-1081.96716	-43.51061	1597.83740	-953.49390	-56.56028	1590.99646	-1023.91992	-56.02105	1437.44238	-1010.65027	-95.19922	1107.79041	-1014.35388	53.19970	1359.18774	-1015.87036	94.68791	1186.21460	-943.44806	-137.48103	1267.44641	-1180.96362	8.25895	1388.38391	-1244.59155	-40.16609	1192.10742	-1250.67712	-80.94425	1086.45959	-1274.34277	-106.31538	938.66760	-1237.54858	-79.77322	809.16656	-1270.59753	-141.97969	825.33795	-1270.85291	-133.02135	734.23816	-857.80579	-5.40467	1392.33960	-765.20221	-8.13270	1195.43628	-741.39923	42.31036	1085.30920	-720.47504	115.16785	991.83673	-749.53265	241.22179	910.78284	-710.57178	195.78072	881.38208	-702.95227	268.95102	844.21948	-1115.87988	92.02853	958.90033	-898.17719	80.04690	951.14764	-1100.10999	-68.10587	976.28448	-932.24103	-69.96081	973.76294	-1190.73865	85.44567	645.71558	-1163.81763	128.60686	489.93115	-1155.54883	138.08318	231.76581	-1110.98865	166.35571	62.29905	-1063.01636	129.13507	47.45782	-1103.94116	313.47464	39.70762	-851.03607	-1.34881	613.73657	-864.89020	-12.80469	486.39005	-874.82288	-201.35814	290.96082	-921.52673	-325.41150	153.70801	-968.26270	-366.46405	161.25955	-930.72296	-235.40289	30.85732	-1017.94623	-13.69458	1688.63440																														 
58	0.570	-1067.47620	101.46107	1647.38025	-936.52734	86.81947	1636.36877	-1083.13428	-32.65728	1599.65662	-954.67078	-45.63499	1593.24927	-1025.09705	-45.22056	1439.03430	-1011.91400	-83.90660	1109.67285	-1015.22876	64.04971	1361.13770	-1016.66260	106.12911	1188.38403	-944.68701	-126.59163	1269.02637	-1181.77979	20.00868	1390.65491	-1246.05298	-26.27942	1194.00427	-1252.61206	-65.72379	1087.99402	-1276.44336	-88.86988	939.84845	-1238.71423	-61.47037	810.68182	-1273.25647	-123.00642	826.13007	-1272.54614	-113.68439	734.85052	-859.13843	4.96845	1394.23657	-766.86829	1.73657	1197.33716	-743.77301	50.64696	1086.41541	-722.52380	121.67648	991.38727	-751.05621	245.91505	907.34027	-712.33246	199.83162	879.09180	-704.46417	272.06534	839.97510	-1117.45459	103.53436	961.46729	-899.94891	91.68536	953.25171	-1100.96851	-56.28376	978.71649	-933.50049	-58.03751	975.24139	-1192.05322	95.65619	647.80505	-1165.42908	136.71858	491.21750	-1156.76379	142.40936	232.66214	-1111.42700	167.12540	62.40358	-1064.09778	129.01488	47.61708	-1102.35583	314.11801	39.09972	-850.31787	15.23945	614.45966	-862.64880	7.15976	486.76187	-874.35425	-184.83986	296.71420	-921.55707	-312.57846	163.69298	-969.27118	-351.57855	173.82013	-930.38007	-232.99458	32.86355	-1019.41699	-2.51299	1690.59058																														 
59	0.580	-1068.82629	112.35722	1648.25525	-937.97516	97.73029	1638.04065	-1084.19385	-21.88977	1601.33118	-955.72144	-34.76030	1595.45813	-1026.18298	-34.45479	1440.49622	-1013.25592	-72.75444	1111.38647	-1016.14490	74.81316	1362.90918	-1017.55591	117.61825	1190.48950	-945.86633	-115.62523	1270.46545	-1182.50293	31.59527	1392.97351	-1247.59717	-12.40544	1196.02844	-1254.66357	-50.54754	1089.57214	-1278.60730	-71.13443	941.01959	-1240.12305	-42.75868	812.23627	-1276.01489	-103.31382	826.87134	-1273.93396	-92.99137	735.52661	-860.49915	15.19142	1395.90442	-768.12726	11.70449	1199.07239	-746.06628	58.66538	1087.34961	-724.51837	127.74016	990.79742	-752.49780	250.45459	903.84821	-713.90826	203.23663	876.48273	-706.25281	274.97546	835.57892	-1118.91272	114.91135	963.73297	-901.64349	102.80090	955.07727	-1101.91382	-44.43444	980.96149	-934.78845	-46.43893	976.59473	-1193.26709	104.84486	649.38251	-1166.64771	143.84390	491.93054	-1157.33044	146.18579	233.43134	-1111.44739	167.50586	62.46987	-1064.42236	129.04008	47.71561	-1101.57166	314.25867	38.35565	-849.42035	31.99774	615.01208	-860.50037	27.67489	487.01825	-873.67114	-166.80647	302.48022	-921.53601	-298.24536	173.63126	-969.66302	-336.07578	186.37198	-929.95056	-228.05032	36.52602	-1020.91058	8.75465	1692.41101																														 
